<?xml version="1.0" encoding="UTF-8"?>
<svg xmlns="http://www.w3.org/2000/svg" viewBox="0 0 500 500" width="500" height="500">
<path d="M237.98 44.16C248.77 46.51 257.72 51.92 265.93 59.32C268.23 61.39 270.14 64.15 272.49 66.02C273.82 67.69 275.16 69.36 276.49 71.02C277.44 72.37 278.39 73.73 279.34 75.08C280.04 76.1 280.73 77.13 281.43 78.16C282.44 79.78 283.45 81.41 284.46 83.04C285.46 84.71 286.45 86.38 287.45 88.05C288.78 90.38 290.12 92.71 291.46 95.05C293.78 99.05 296.11 103.06 298.44 107.06C299.78 109.39 301.11 111.72 302.45 114.05C303.79 116.38 305.13 118.71 306.46 121.04C307.46 122.71 308.45 124.39 309.44 126.06C310.78 128.39 312.12 130.71 313.46 133.04C315.79 137.05 318.11 141.05 320.44 145.06C321.77 147.39 323.11 149.72 324.45 152.05C325.78 154.38 327.12 156.72 328.46 159.05C329.79 161.38 331.13 163.71 332.46 166.04C334.79 170.05 337.11 174.05 339.44 178.06C340.78 180.39 342.11 182.72 343.45 185.05C344.78 187.38 346.12 189.72 347.45 192.05C348.79 194.38 350.12 196.71 351.46 199.04C355.12 205.38 358.78 211.72 362.44 218.06C363.78 220.39 365.12 222.72 366.45 225.05C367.79 227.38 369.12 229.71 370.46 232.04C371.79 234.37 373.13 236.71 374.46 239.04C375.8 241.37 377.14 243.7 378.47 246.03C380.79 250.04 383.12 254.05 385.44 258.06C386.78 260.39 388.11 262.72 389.44 265.06C390.78 267.39 392.12 269.72 393.45 272.05C394.79 274.38 396.12 276.71 397.46 279.04C398.79 281.37 400.13 283.71 401.47 286.04C405.13 292.37 408.79 298.71 412.45 305.05C414.78 309.05 417.12 313.05 419.45 317.05C421.78 321.05 424.12 325.05 426.45 329.05C428.78 333.05 431.11 337.05 433.45 341.05C435.78 345.05 438.11 349.06 440.44 353.06C441.78 355.38 443.13 357.71 444.47 360.04C446.8 364.04 449.12 368.04 451.45 372.05C453.78 376.05 456.11 380.06 458.44 384.06C459.78 386.39 461.12 388.72 462.46 391.04C463.79 393.38 465.13 395.71 466.47 398.04C468.79 402.04 471.12 406.05 473.44 410.06C474.78 412.39 476.11 414.72 477.45 417.05C478.79 419.38 480.12 421.71 481.46 424.04C482.79 426.37 484.13 428.71 485.46 431.04C487.79 435.05 490.11 439.05 492.44 443.06C493.44 444.72 494.45 446.38 495.46 448.05C496.62 450.21 497.78 452.37 498.95 454.53C498.88 454.9 498.82 455.28 498.75 455.65C496.17 455.76 493.58 455.88 491 455.99C477.51 453.39 463.98 451.26 450.76 447.52C442.39 445.16 434.38 440.9 426.03 438.85C424.52 438.22 423.01 437.59 421.5 436.97C421.36 436.92 421.22 436.88 421.08 436.84C413.9 432.7 405.91 429.64 398.57 425.69C391.81 422.06 385.74 417.29 379.12 413.48C378.1 412.76 377.09 412.05 376.08 411.34C374.74 410.38 373.39 409.42 372.05 408.46C370.37 407.13 368.7 405.81 367.03 404.48C365.02 402.82 363.02 401.16 361.01 399.5C358.35 397.17 355.68 394.84 353.01 392.51C342.03 381.49 331.04 370.47 320.06 359.45C316.4 354.78 305.15 348.99 299.5 346.99C299.35 346.95 299.19 346.9 299.04 346.85C296.86 345.91 294.68 344.97 292.5 344.03C289.83 343 287.17 341.98 284.5 340.95C282.94 338.87 274.29 337.55 271.37 336.75C273.7 330.92 276.03 325.08 278.36 319.25C280.29 319.31 280.99 320.8 282.75 321.76C281.91 319.53 271.05 310 268.65 308.58C266.05 307.04 264.03 304.03 261.48 302.26C252.15 295.78 241.52 288.78 230.71 285.12C225.26 283.28 217.98 282.84 213.45 279.08C215.3 277.25 228.04 275.42 231.78 274.1C243.62 269.91 261.73 259.9 269.1 249.45C270.75 247.52 272.41 245.58 274.07 243.64C276.76 239.62 279.46 235.59 282.16 231.57C283.46 228.92 284.77 226.28 286.07 223.63C289 219.38 291.63 211.61 292.15 206.48C292.35 204.47 292.55 202.47 292.75 200.46C291.68 199.96 290.62 199.45 289.55 198.95C284.2 196.28 277.48 195.69 271.64 194.69C265.92 193.71 259.91 191.79 254.07 191.83C250.88 191.55 247.69 191.27 244.5 190.99C237.5 190.99 230.5 190.98 223.5 190.98C220 191.27 216.5 191.55 213 191.84C212.33 191.89 211.67 191.94 211 191.99C208.82 192.27 206.64 192.55 204.46 192.84C193.16 192.88 172.44 199.95 161.5 204.01C159.31 204.96 157.13 205.9 154.94 206.84C154.79 206.89 154.65 206.93 154.5 206.98C152.34 207.94 150.18 208.9 148.02 209.86C147.62 210.05 147.23 210.24 146.84 210.42C144.55 211.77 142.26 213.12 139.96 214.47C138.55 215.07 136.97 216.22 135.59 215.25C135.92 214.55 136.25 213.86 136.58 213.16C169.14 156.86 201.71 100.55 234.27 44.25C235.51 44.22 236.75 44.19 237.98 44.16Z" fill="#0399df" fill-rule="evenodd" stroke="#0399df" stroke-width="0.25" stroke-linejoin="round"/>
<path d="M173 283.65C175.32 285.76 181.11 283.45 184.25 284.5C183.78 287.57 181.89 289.49 181.04 292.3C180.77 293.2 181.05 294.14 180.74 295.03C180.19 296.56 178.64 297.81 178.1 299.3C177.48 301.03 177.5 302.72 176.68 304.45C175.92 306.04 174.56 307.61 174.04 309.3C173.77 310.2 174.05 311.14 173.74 312.03C173.19 313.56 171.64 314.81 171.1 316.3C170.78 317.19 171.04 318.15 170.74 319.03C169.87 321.56 167.82 323.75 167.04 326.3C166.77 327.2 167.05 328.14 166.74 329.03C166.2 330.56 164.64 331.81 164.1 333.3C163.78 334.19 164.04 335.15 163.74 336.03C162.87 338.55 160.8 340.76 160.04 343.3C159.77 344.2 160.05 345.14 159.74 346.03C159.19 347.56 157.64 348.81 157.1 350.3C156.78 351.19 157.04 352.15 156.74 353.03C155.87 355.55 153.82 357.75 153.04 360.3C152.77 361.2 153.05 362.14 152.74 363.03C152.19 364.56 150.64 365.81 150.1 367.3C149.48 369.03 149.52 370.78 148.72 372.51C147.3 375.62 144.91 378.9 144.02 382.27C143.78 383.18 144.05 384.13 143.74 385.03C143.2 386.56 141.64 387.81 141.1 389.3C140.78 390.19 141.04 391.15 140.74 392.03C139.87 394.56 137.83 396.76 137.04 399.3C136.02 402.59 134.85 405.79 133.74 409.03C132.26 413.33 128.8 414.84 125.47 417.29C124.52 417.99 123.99 419.06 122.86 419.62C120.29 420.91 116.45 421.9 115.99 425.08C111.68 430.36 99.62 434.44 93.27 437C71.51 445.75 53.66 448.68 30.5 451.02C24.67 451.01 18.83 451 13 450.99C8.69 450.5 4.39 450.02 0.08 449.53C0.08 448.9 0.08 448.27 0.08 447.64C2.77 446.79 4.1 441.54 5.37 439.14C9.84 430.69 14.6 422.4 19.13 413.98C27.19 398.95 34.91 383.75 43.02 368.75C48.37 358.84 52.96 348.35 59.23 338.97C62.15 334.61 65.04 330.04 68.41 326.01C70.54 323.45 73.21 321.17 75.1 318.47C76.9 316.69 78.7 314.91 80.5 313.13C88.79 308.24 95.99 301.92 105.24 298.52C122.7 292.12 140.42 288.57 158.75 285.48C163.47 284.69 168.3 284.56 173 283.65Z" fill="#045e98" fill-rule="evenodd" stroke="#045e98" stroke-width="0.25" stroke-linejoin="round"/>
<path d="M213.45 279.08C217.98 282.84 225.26 283.28 230.71 285.12C241.52 288.78 252.15 295.78 261.48 302.26C264.03 304.03 266.05 307.04 268.65 308.58C271.05 310 281.91 319.53 282.75 321.76C280.99 320.8 280.29 319.31 278.36 319.25C276.03 325.08 273.7 330.92 271.37 336.75C274.29 337.55 282.94 338.87 284.5 340.95C280.24 340.51 276.23 338.98 271.99 338.26C263.84 336.86 254.85 337.46 246.75 338.9C217.53 344.1 190.4 369.14 167.93 387.19C156.01 396.77 144.41 406.34 131.94 415.2C127.34 418.47 121.47 423.67 115.99 425.08C116.45 421.9 120.29 420.91 122.86 419.62C123.99 419.06 124.52 417.99 125.47 417.29C128.8 414.84 132.26 413.33 133.74 409.03C134.85 405.79 136.02 402.59 137.04 399.3C137.83 396.76 139.87 394.56 140.74 392.03C141.04 391.15 140.78 390.19 141.1 389.3C141.64 387.81 143.2 386.56 143.74 385.03C144.05 384.13 143.78 383.18 144.02 382.27C144.91 378.9 147.3 375.62 148.72 372.51C149.52 370.78 149.48 369.03 150.1 367.3C150.64 365.81 152.19 364.56 152.74 363.03C153.05 362.14 152.77 361.2 153.04 360.3C153.82 357.75 155.87 355.55 156.74 353.03C157.04 352.15 156.78 351.19 157.1 350.3C157.64 348.81 159.19 347.56 159.74 346.03C160.05 345.14 159.77 344.2 160.04 343.3C160.8 340.76 162.87 338.55 163.74 336.03C164.04 335.15 163.78 334.19 164.1 333.3C164.64 331.81 166.2 330.56 166.74 329.03C167.05 328.14 166.77 327.2 167.04 326.3C167.82 323.75 169.87 321.56 170.74 319.03C171.04 318.15 170.78 317.19 171.1 316.3C171.64 314.81 173.19 313.56 173.74 312.03C174.05 311.14 173.77 310.2 174.04 309.3C174.56 307.61 175.92 306.04 176.68 304.45C177.5 302.72 177.48 301.03 178.1 299.3C178.64 297.81 180.19 296.56 180.74 295.03C181.05 294.14 180.77 293.2 181.04 292.3C181.89 289.49 183.78 287.57 184.25 284.5C181.11 283.45 175.32 285.76 173 283.65C186.48 282.13 199.97 280.61 213.45 279.08Z" fill="#057ab9" fill-rule="evenodd" stroke="#057ab9" stroke-width="0.25" stroke-linejoin="round"/>
<path d="M237.98 44.16C246 43.14 253.82 48.98 260.14 52.61C261.82 53.57 262.94 56.07 264.59 57.16C267.42 59.01 269.61 61.45 272.25 63.5C272.33 64.34 272.41 65.18 272.49 66.02C270.14 64.15 268.23 61.39 265.93 59.32C257.72 51.92 248.77 46.51 237.98 44.16ZM272.49 66.02C272.74 66.02 273 66.01 273.25 66C273.58 66.17 273.92 66.33 274.25 66.5C275 67.25 275.75 68 276.5 68.75C276.5 69.51 276.49 70.26 276.49 71.02C275.16 69.36 273.82 67.69 272.49 66.02ZM276.49 71.02C276.74 71.01 277 71.01 277.25 71C277.58 71.17 277.92 71.33 278.25 71.5C278.67 71.92 279.08 72.33 279.5 72.75C279.45 73.53 279.39 74.3 279.34 75.08C278.39 73.73 277.44 72.37 276.49 71.02ZM281.43 78.16C281.7 78.1 281.98 78.05 282.25 78C282.67 78.25 283.08 78.5 283.5 78.75C283.5 79.42 283.5 80.08 283.5 80.75C283.83 80.92 284.17 81.08 284.5 81.25C284.49 81.85 284.48 82.44 284.46 83.04C283.45 81.41 282.44 79.78 281.43 78.16ZM284.46 83.04C284.73 83.03 284.99 83.01 285.25 83C285.67 83.25 286.08 83.5 286.5 83.75C286.5 84.42 286.5 85.08 286.5 85.75C286.83 85.92 287.17 86.08 287.5 86.25C287.48 86.85 287.46 87.45 287.45 88.05C286.45 86.38 285.46 84.71 284.46 83.04ZM287.45 88.05C288.13 88.29 288.82 88.52 289.5 88.75C289.5 89.42 289.5 90.08 289.5 90.75C290.74 91.6 291.49 93.51 291.46 95.05C290.12 92.71 288.78 90.38 287.45 88.05ZM291.46 95.05C292.05 95.2 292.65 95.35 293.25 95.5C293.67 97.59 294.16 99.68 296.25 100.5C296.98 102.69 297.71 104.87 298.44 107.06C296.11 103.06 293.78 99.05 291.46 95.05ZM298.44 107.06C299.13 107.29 299.81 107.52 300.5 107.75C300.5 108.42 300.5 109.08 300.5 109.75C301.74 110.6 302.49 112.52 302.45 114.05C301.11 111.72 299.78 109.39 298.44 107.06ZM302.45 114.05C303.13 114.28 303.82 114.52 304.5 114.75C304.5 115.42 304.5 116.08 304.5 116.75C305.74 117.6 306.49 119.51 306.46 121.04C305.13 118.71 303.79 116.38 302.45 114.05ZM306.46 121.04C306.73 121.03 306.99 121.01 307.25 121C307.67 121.25 308.08 121.5 308.5 121.75C308.5 122.42 308.5 123.08 308.5 123.75C308.83 123.92 309.17 124.08 309.5 124.25C309.48 124.85 309.46 125.46 309.44 126.06C308.45 124.39 307.46 122.71 306.46 121.04ZM309.44 126.06C310.13 126.29 310.81 126.52 311.5 126.75C311.5 127.42 311.5 128.08 311.5 128.75C312.74 129.6 313.49 131.51 313.46 133.04C312.12 130.71 310.78 128.39 309.44 126.06ZM313.46 133.04C314.06 133.19 314.65 133.35 315.25 133.5C315.67 135.59 316.16 137.68 318.25 138.5C318.98 140.69 319.71 142.87 320.44 145.06C318.11 141.05 315.79 137.05 313.46 133.04ZM320.44 145.06C321.13 145.29 321.81 145.52 322.5 145.75C322.5 146.42 322.5 147.08 322.5 147.75C323.75 148.6 324.49 150.52 324.45 152.05C323.11 149.72 321.77 147.39 320.44 145.06ZM324.45 152.05C325.13 152.29 325.82 152.52 326.5 152.75C326.5 153.42 326.5 154.08 326.5 154.75C327.74 155.6 328.49 157.51 328.46 159.05C327.12 156.72 325.78 154.38 324.45 152.05ZM328.46 159.05C329.14 159.28 329.82 159.52 330.5 159.75C330.5 160.42 330.5 161.08 330.5 161.75C331.74 162.6 332.49 164.51 332.46 166.04C331.13 163.71 329.79 161.38 328.46 159.05ZM332.46 166.04C333.06 166.19 333.65 166.35 334.25 166.5C334.67 168.59 335.16 170.68 337.25 171.5C337.98 173.69 338.71 175.87 339.44 178.06C337.11 174.05 334.79 170.05 332.46 166.04ZM339.44 178.06C340.13 178.29 340.81 178.52 341.5 178.75C341.5 179.42 341.5 180.08 341.5 180.75C342.75 181.6 343.49 183.52 343.45 185.05C342.11 182.72 340.78 180.39 339.44 178.06ZM343.45 185.05C344.13 185.28 344.82 185.52 345.5 185.75C345.5 186.42 345.5 187.08 345.5 187.75C346.74 188.6 347.49 190.52 347.45 192.05C346.12 189.72 344.78 187.38 343.45 185.05ZM223.5 190.98C222.92 191.15 222.33 191.33 221.75 191.5C220.66 193.09 215.08 192.11 213 191.84C216.5 191.55 220 191.27 223.5 190.98ZM244.5 190.99C247.69 191.27 250.88 191.55 254.07 191.83C252.06 192.09 247.34 193.09 246.25 191.5C245.67 191.33 245.08 191.16 244.5 190.99ZM211 191.99C210.75 192.49 210.5 193 210.25 193.5C209.75 193.5 209.25 193.5 208.75 193.5C207.32 193.28 205.89 193.06 204.46 192.84C206.64 192.55 208.82 192.27 211 191.99ZM347.45 192.05C348.13 192.28 348.82 192.52 349.5 192.75C349.5 193.42 349.5 194.08 349.5 194.75C350.74 195.6 351.49 197.51 351.46 199.04C350.12 196.71 348.79 194.38 347.45 192.05ZM289.55 198.95C290.62 199.45 291.68 199.96 292.75 200.46C292.55 202.47 292.35 204.47 292.15 206.48C291.87 204.18 292.55 200.72 289.75 200.5C289.68 199.98 289.62 199.47 289.55 198.95ZM351.46 199.04C352.06 199.19 352.65 199.35 353.25 199.5C353.67 201.59 354.16 203.68 356.25 204.5C356.73 206.88 357.89 210.58 360.25 211.5C360.98 213.69 361.71 215.87 362.44 218.06C358.78 211.72 355.12 205.38 351.46 199.04ZM161.5 204.01C160.85 205.26 160.67 205.39 159.25 205.5C159.25 205.83 159.25 206.17 159.25 206.5C157.38 206.65 156.82 208.02 154.94 206.84C157.13 205.9 159.31 204.96 161.5 204.01ZM154.5 206.98C154.25 207.49 154 207.99 153.75 208.5C152.58 208.83 151.42 209.17 150.25 209.5C150.25 209.83 150.25 210.17 150.25 210.5C149.51 210.29 148.76 210.07 148.02 209.86C150.18 208.9 152.34 207.94 154.5 206.98ZM146.84 210.42C146.64 211.12 146.45 211.81 146.25 212.5C145.58 212.5 144.92 212.5 144.25 212.5C143.41 213.73 141.49 214.49 139.96 214.47C142.26 213.12 144.55 211.77 146.84 210.42ZM136.58 213.16C136.25 213.86 135.92 214.55 135.59 215.25C136.97 216.22 138.55 215.07 139.96 214.47C139.73 215.15 139.49 215.82 139.25 216.5C137.67 216.5 136.92 216.59 135.75 217.5C135.5 216.42 135.25 215.33 135 214.25C135.53 213.89 136.05 213.52 136.58 213.16ZM362.44 218.06C363.13 218.29 363.81 218.52 364.5 218.75C364.5 219.42 364.5 220.08 364.5 220.75C365.74 221.6 366.49 223.52 366.45 225.05C365.12 222.72 363.78 220.39 362.44 218.06ZM286.07 223.63C284.77 226.28 283.46 228.92 282.16 231.57C282.11 231.13 282.05 230.69 282 230.25C283.08 228.17 284.17 226.08 285.25 224C285.52 223.88 285.8 223.75 286.07 223.63ZM366.45 225.05C367.13 225.28 367.82 225.52 368.5 225.75C368.5 226.42 368.5 227.08 368.5 227.75C369.74 228.6 370.49 230.51 370.46 232.04C369.12 229.71 367.79 227.38 366.45 225.05ZM370.46 232.04C371.14 232.28 371.82 232.51 372.5 232.75C372.5 233.42 372.5 234.08 372.5 234.75C373.74 235.6 374.49 237.51 374.46 239.04C373.13 236.71 371.79 234.37 370.46 232.04ZM374.46 239.04C375.14 239.28 375.82 239.51 376.5 239.75C376.5 240.42 376.5 241.08 376.5 241.75C377.73 242.59 378.49 244.51 378.47 246.03C377.14 243.7 375.8 241.37 374.46 239.04ZM274.07 243.64C272.41 245.58 270.75 247.52 269.1 249.45C269.06 249.05 269.03 248.65 269 248.25C270.69 246.71 272.38 245.18 274.07 243.64ZM378.47 246.03C379.06 246.19 379.66 246.34 380.25 246.5C380.67 248.59 381.16 250.68 383.25 251.5C383.98 253.69 384.71 255.87 385.44 258.06C383.12 254.05 380.79 250.04 378.47 246.03ZM385.44 258.06C386.13 258.29 386.81 258.52 387.5 258.75C387.5 259.42 387.5 260.08 387.5 260.75C388.75 261.6 389.49 263.52 389.44 265.06C388.11 262.72 386.78 260.39 385.44 258.06ZM389.44 265.06C390.13 265.29 390.81 265.52 391.5 265.75C391.5 266.42 391.5 267.08 391.5 267.75C392.74 268.6 393.49 270.51 393.45 272.05C392.12 269.72 390.78 267.39 389.44 265.06ZM393.45 272.05C394.14 272.28 394.82 272.52 395.5 272.75C395.5 273.42 395.5 274.08 395.5 274.75C396.74 275.6 397.49 277.51 397.46 279.04C396.12 276.71 394.79 274.38 393.45 272.05ZM397.46 279.04C398.14 279.28 398.82 279.51 399.5 279.75C399.5 280.42 399.5 281.08 399.5 281.75C400.74 282.6 401.49 284.51 401.47 286.04C400.13 283.71 398.79 281.37 397.46 279.04ZM401.47 286.04C402.06 286.19 402.66 286.35 403.25 286.5C403.67 288.59 404.16 290.68 406.25 291.5C406.73 293.88 407.89 297.58 410.25 298.5C410.98 300.68 411.72 302.87 412.45 305.05C408.79 298.71 405.13 292.37 401.47 286.04ZM412.45 305.05C413.05 305.2 413.65 305.35 414.25 305.5C414.67 307.59 415.16 309.68 417.25 310.5C417.98 312.68 418.72 314.87 419.45 317.05C417.12 313.05 414.78 309.05 412.45 305.05ZM80.5 313.13C78.7 314.91 76.9 316.69 75.1 318.47C75.07 318.06 75.03 317.66 75 317.25C76.42 315.67 77.83 314.08 79.25 312.5C79.67 312.71 80.08 312.92 80.5 313.13ZM419.45 317.05C420.05 317.2 420.65 317.35 421.25 317.5C421.67 319.59 422.16 321.68 424.25 322.5C424.98 324.68 425.72 326.87 426.45 329.05C424.12 325.05 421.78 321.05 419.45 317.05ZM426.45 329.05C427.05 329.2 427.65 329.35 428.25 329.5C428.67 331.59 429.16 333.68 431.25 334.5C431.98 336.68 432.71 338.87 433.45 341.05C431.11 337.05 428.78 333.05 426.45 329.05ZM433.45 341.05C434.05 341.2 434.65 341.35 435.25 341.5C435.67 343.59 436.16 345.68 438.25 346.5C438.98 348.69 439.71 350.87 440.44 353.06C438.11 349.06 435.78 345.05 433.45 341.05ZM292.5 344.03C294.68 344.97 296.86 345.91 299.04 346.85C297.18 348.03 296.61 346.65 294.75 346.5C294.75 346.17 294.75 345.83 294.75 345.5C293.34 345.39 293.15 345.26 292.5 344.03ZM299.5 346.99C305.15 348.99 316.4 354.78 320.06 359.45C319.2 359.38 318.35 359.32 317.5 359.25C316.1 357.45 315.88 356.73 313.5 356.25C312.68 354.16 310.59 353.67 308.5 353.25C307.07 349.6 301.23 350.42 299.5 346.99ZM440.44 353.06C441.13 353.29 441.81 353.52 442.5 353.75C442.5 354.42 442.5 355.08 442.5 355.75C443.74 356.6 444.49 358.51 444.47 360.04C443.13 357.71 441.78 355.38 440.44 353.06ZM320.06 359.45C331.04 370.47 342.03 381.49 353.01 392.51C352.17 392.42 351.34 392.34 350.5 392.25C345.93 386.37 339.55 381.78 334.59 376.16C332.76 374.08 331.53 371.8 329.41 369.84C326.72 367.37 320.72 363.05 320.06 359.45ZM444.47 360.04C445.06 360.19 445.66 360.35 446.25 360.5C446.67 362.59 447.16 364.68 449.25 365.5C449.98 367.68 450.72 369.86 451.45 372.05C449.12 368.04 446.8 364.04 444.47 360.04ZM451.45 372.05C452.05 372.2 452.65 372.35 453.25 372.5C453.67 374.59 454.16 376.68 456.25 377.5C456.98 379.69 457.71 381.87 458.44 384.06C456.11 380.06 453.78 376.05 451.45 372.05ZM458.44 384.06C459.13 384.29 459.81 384.52 460.5 384.75C460.5 385.42 460.5 386.08 460.5 386.75C461.74 387.6 462.49 389.51 462.46 391.04C461.12 388.72 459.78 386.39 458.44 384.06ZM462.46 391.04C463.14 391.28 463.82 391.51 464.5 391.75C464.5 392.42 464.5 393.08 464.5 393.75C465.74 394.6 466.49 396.51 466.47 398.04C465.13 395.71 463.79 393.38 462.46 391.04ZM353.01 392.51C355.68 394.84 358.35 397.17 361.01 399.5C360.26 399.5 359.5 399.5 358.75 399.5C357.13 397.03 353.73 395.47 353.01 392.51ZM466.47 398.04C467.06 398.19 467.66 398.35 468.25 398.5C468.67 400.59 469.16 402.68 471.25 403.5C471.98 405.69 472.71 407.87 473.44 410.06C471.12 406.05 468.79 402.04 466.47 398.04ZM361.01 399.5C363.02 401.16 365.02 402.82 367.03 404.48C366.27 404.49 365.51 404.49 364.75 404.5C363.5 402.83 362.26 401.17 361.01 399.5ZM367.03 404.48C368.7 405.81 370.37 407.13 372.05 408.46C371.28 408.47 370.52 408.49 369.75 408.5C369 407.75 368.25 407 367.5 406.25C367.33 405.92 367.17 405.58 367 405.25C367.01 404.99 367.02 404.74 367.03 404.48ZM372.05 408.46C373.39 409.42 374.74 410.38 376.08 411.34C375.3 411.39 374.53 411.45 373.75 411.5C373.33 411.08 372.92 410.67 372.5 410.25C372.33 409.92 372.17 409.58 372 409.25C372.02 408.99 372.03 408.72 372.05 408.46ZM473.44 410.06C474.13 410.29 474.81 410.52 475.5 410.75C475.5 411.42 475.5 412.08 475.5 412.75C476.75 413.6 477.49 415.52 477.45 417.05C476.11 414.72 474.78 412.39 473.44 410.06ZM379.12 413.48C385.74 417.29 391.81 422.06 398.57 425.69C405.91 429.64 413.9 432.7 421.08 436.84C420.47 437.06 419.86 437.28 419.25 437.5C415.75 434.78 400.67 427.08 396.5 426.25C395.68 424.16 393.59 423.67 391.5 423.25C390.3 420.18 384.5 420 382.75 416.5C380.66 416.48 379.39 415.6 379.12 413.48ZM477.45 417.05C478.13 417.28 478.82 417.52 479.5 417.75C479.5 418.42 479.5 419.08 479.5 419.75C480.74 420.6 481.49 422.51 481.46 424.04C480.12 421.71 478.79 419.38 477.45 417.05ZM481.46 424.04C482.14 424.28 482.82 424.51 483.5 424.75C483.5 425.42 483.5 426.08 483.5 426.75C484.74 427.6 485.49 429.51 485.46 431.04C484.13 428.71 482.79 426.37 481.46 424.04ZM485.46 431.04C486.06 431.19 486.65 431.35 487.25 431.5C487.67 433.59 488.16 435.68 490.25 436.5C490.98 438.69 491.71 440.87 492.44 443.06C490.11 439.05 487.79 435.05 485.46 431.04ZM421.5 436.97C423.01 437.59 424.52 438.22 426.03 438.85C425.77 439.06 425.51 439.28 425.25 439.5C424.75 439.5 424.25 439.5 423.75 439.5C423.25 439.17 422.75 438.83 422.25 438.5C422 437.99 421.75 437.48 421.5 436.97ZM492.44 443.06C492.71 443.04 492.98 443.02 493.25 443C493.67 443.25 494.08 443.5 494.5 443.75C494.5 444.42 494.5 445.08 494.5 445.75C494.83 445.92 495.17 446.08 495.5 446.25C495.49 446.85 495.47 447.45 495.46 448.05C494.45 446.38 493.44 444.72 492.44 443.06ZM495.46 448.05C496.14 448.28 496.82 448.52 497.5 448.75C497.5 449.42 497.5 450.08 497.5 450.75C498.17 451.58 498.83 452.42 499.5 453.25C499.32 453.68 499.13 454.1 498.95 454.53C497.78 452.37 496.62 450.21 495.46 448.05ZM13 450.99C18.83 451 24.67 451.01 30.5 451.02C24.67 451.01 18.83 451 13 450.99ZM498.95 454.53C499.27 454.69 499.59 454.84 499.92 455C499.92 455.33 499.92 455.67 499.92 456C499.03 456.17 498.14 456.33 497.25 456.5C497.25 456.83 497.25 457.17 497.25 457.5C495.42 457.5 493.58 457.5 491.75 457.5C491.5 457 491.25 456.49 491 455.99C493.58 455.88 496.17 455.76 498.75 455.65C498.82 455.28 498.88 454.9 498.95 454.53Z" fill="#ffffff" fill-rule="evenodd" stroke="#ffffff" stroke-width="0.25" stroke-linejoin="round"/>
</svg>